<?xml version="1.0" standalone="no"?>
<!DOCTYPE svg PUBLIC "-//W3C//DTD SVG 20010904//EN"
 "http://www.w3.org/TR/2001/REC-SVG-20010904/DTD/svg10.dtd">
<svg version="1.0" xmlns="http://www.w3.org/2000/svg"
 width="110.000000pt" height="110.000000pt" viewBox="0 0 110.000000 110.000000"
 preserveAspectRatio="xMidYMid meet">
<metadata>
Created by potrace 1.11, written by Peter Selinger 2001-2013
</metadata>
<g transform="translate(0.000000,110.000000) scale(0.100000,-0.100000)"
fill="#000000" stroke="none">
<path d="M231 887 c-13 -12 -21 -15 -17 -7 5 9 2 9 -7 -2 -8 -10 -17 -15 -20
-11 -4 3 -7 1 -7 -6 0 -7 -3 -10 -8 -7 -8 5 -49 -22 -44 -29 1 -3 -1 -5 -5 -6
-5 0 -12 -7 -16 -15 -5 -8 -13 -12 -18 -8 -5 3 -9 2 -8 -3 3 -19 -2 -34 -10
-28 -5 3 -13 -5 -17 -17 -4 -13 -11 -26 -15 -29 -5 -3 -10 -17 -11 -32 -2 -18
-6 -23 -13 -17 -8 7 -12 -23 -13 -105 -1 -83 2 -115 11 -115 7 0 6 -4 -3 -10
-13 -8 -12 -10 3 -10 10 0 17 -8 17 -20 0 -10 10 -29 22 -41 13 -12 17 -19 10
-14 -11 6 -11 3 0 -14 7 -12 19 -21 26 -21 7 0 10 -5 7 -10 -3 -6 2 -13 11
-17 22 -8 54 -40 47 -46 -3 -3 4 -3 16 0 14 4 21 1 21 -10 0 -8 7 -18 16 -21
8 -3 13 -2 10 3 -4 5 5 4 18 -2 13 -7 22 -15 20 -19 -9 -14 191 -9 205 5 8 6
11 7 8 2 -3 -6 3 -11 13 -11 12 0 16 5 12 16 -3 8 -2 12 3 8 4 -4 15 -2 23 5
13 10 14 9 7 -3 -7 -12 -6 -13 7 -3 8 7 19 9 23 5 5 -4 5 -1 1 6 -7 11 5 17
27 13 5 -1 6 3 2 9 -3 5 2 10 12 11 13 0 14 2 4 6 -9 4 -3 10 18 19 18 8 30
18 26 24 -3 5 1 10 9 10 9 0 16 7 16 15 0 8 5 15 10 15 6 0 10 9 10 20 0 11 7
23 15 26 8 4 12 10 9 15 -3 5 0 9 6 9 6 0 9 4 6 8 -2 4 -1 14 4 22 5 9 5 19
-1 26 -7 8 -6 15 2 20 8 5 10 3 4 -7 -5 -8 -4 -10 0 -6 5 4 10 22 11 40 1 18
0 26 -3 19 -4 -10 -9 -8 -19 5 -10 14 -13 14 -14 4 0 -11 -4 -9 -15 5 -14 18
-15 18 -9 0 6 -16 4 -17 -14 -7 -18 10 -20 9 -17 -8 2 -11 -3 -22 -12 -25 -13
-5 -13 -9 -2 -23 12 -14 12 -16 0 -9 -10 7 -12 3 -6 -14 6 -17 4 -21 -6 -14
-10 6 -10 3 1 -11 8 -10 10 -16 3 -12 -7 5 -18 -6 -29 -28 -9 -19 -21 -38 -27
-42 -6 -4 -7 -1 -2 7 5 9 4 11 -3 6 -7 -4 -12 -14 -12 -22 0 -8 -4 -13 -8 -10
-5 3 -16 -4 -25 -15 -9 -10 -24 -19 -32 -19 -8 0 -15 -6 -15 -12 0 -9 -4 -8
-10 2 -6 10 -10 11 -10 3 0 -7 -11 -13 -25 -13 -14 0 -25 -4 -25 -8 0 -5 -7
-9 -15 -9 -8 0 -12 4 -9 9 7 12 -39 5 -48 -7 -5 -6 -8 -6 -8 1 0 6 -12 12 -27
12 -15 0 -29 5 -31 11 -2 6 -12 11 -23 11 -10 0 -19 5 -19 11 0 5 -4 8 -9 5
-4 -3 -17 2 -27 10 -10 9 -13 12 -5 8 9 -5 12 -3 7 4 -4 7 -14 12 -22 12 -8 0
-13 4 -9 9 3 5 -4 12 -15 16 -11 4 -18 10 -15 15 3 5 1 11 -5 15 -6 4 -8 10
-5 15 3 5 -4 14 -15 20 -16 8 -18 15 -11 24 7 9 7 16 -1 24 -8 8 -8 16 3 28 8
10 9 15 2 11 -8 -5 -11 4 -10 33 1 22 5 40 8 40 4 0 9 7 12 14 4 11 1 13 -11
10 -15 -5 -15 -4 -2 8 8 7 22 22 30 32 13 18 13 19 0 11 -13 -8 -13 -6 -1 8 7
9 18 14 25 10 6 -3 8 -3 4 2 -11 12 12 47 28 41 7 -3 13 0 11 7 -1 6 14 19 33
29 19 9 40 21 46 27 8 6 15 6 22 -1 6 -6 12 -6 16 1 4 5 13 8 21 4 8 -3 15 0
15 7 0 7 6 10 13 7 8 -3 14 1 14 9 0 7 -5 10 -10 7 -6 -4 -7 -1 -2 7 5 8 9 24
10 37 1 21 -3 23 -53 23 -40 0 -51 -3 -46 -12 6 -10 5 -10 -7 -1 -12 10 -20 8
-38 -10z"/>
<path d="M610 890 c-14 -11 -31 -18 -37 -15 -7 2 -13 0 -13 -5 0 -6 -6 -9 -12
-7 -7 1 -12 -4 -10 -11 1 -8 -2 -11 -7 -8 -5 4 -12 2 -16 -4 -4 -6 -11 -7 -17
-4 -8 5 -9 1 -5 -10 4 -10 3 -15 -3 -11 -6 3 -10 1 -10 -5 0 -6 -4 -8 -10 -5
-5 3 -16 -9 -25 -27 -8 -18 -13 -24 -10 -13 5 15 3 17 -5 9 -6 -6 -12 -20 -13
-32 0 -11 -6 -20 -12 -19 -5 1 -9 -6 -7 -17 2 -10 -1 -15 -6 -12 -6 3 -13 -1
-16 -10 -4 -10 -2 -13 7 -8 9 5 9 4 0 -7 -7 -7 -13 -22 -13 -34 0 -12 -6 -27
-12 -34 -11 -11 -10 -12 2 -6 13 8 13 6 2 -7 -11 -14 -10 -17 7 -23 11 -3 20
-9 20 -13 -3 -20 2 -25 11 -12 9 13 11 13 20 0 8 -13 10 -12 10 3 0 11 4 15
11 11 8 -5 10 1 7 20 -4 19 -2 24 7 16 8 -7 11 -4 10 13 -1 12 0 27 4 32 3 6
6 15 7 20 0 6 2 16 2 23 1 7 7 10 12 7 6 -3 10 0 10 8 0 14 47 63 58 60 4 -1
6 5 4 14 -2 8 1 12 7 8 6 -3 11 -1 11 6 0 7 3 9 6 6 4 -3 16 -1 28 6 26 14 43
17 128 20 36 1 64 -1 62 -4 -2 -4 3 -10 12 -13 8 -3 12 -2 9 4 -3 6 1 7 9 4 9
-3 16 -11 16 -17 0 -6 3 -8 6 -4 4 3 13 -1 21 -9 8 -8 20 -11 26 -7 7 3 9 3 6
-1 -3 -3 11 -24 32 -46 26 -27 36 -45 32 -56 -4 -10 -2 -15 3 -11 5 3 14 -6
21 -19 6 -14 7 -26 2 -30 -5 -3 -6 -11 -2 -17 10 -17 10 -107 0 -107 -4 0 -5
-4 -2 -10 3 -6 1 -10 -4 -10 -6 0 -11 -5 -11 -11 0 -5 6 -7 13 -4 6 4 4 0 -5
-8 -10 -8 -18 -17 -18 -21 0 -4 -9 -16 -20 -28 -10 -12 -16 -26 -13 -32 3 -6
3 -8 -2 -4 -11 10 -47 -11 -40 -23 5 -8 -7 -11 -31 -8 -3 0 -14 -9 -23 -20
-19 -21 -37 -29 -26 -11 7 12 -8 14 -19 2 -4 -4 -20 -7 -34 -8 -19 0 -27 -5
-26 -17 1 -9 -2 -17 -6 -17 -6 0 -7 -21 -1 -52 2 -15 109 -8 125 8 9 8 16 12
16 8 0 -3 7 -1 15 6 8 6 20 8 26 4 7 -4 9 -3 5 4 -6 10 17 29 37 31 10 0 41
31 31 31 -4 0 3 9 16 20 12 11 26 17 31 15 4 -3 6 4 4 15 -2 13 1 20 11 20 8
0 12 5 9 10 -3 6 -2 10 2 10 5 0 10 10 10 22 1 13 9 28 18 34 13 10 16 32 14
122 -1 98 -3 110 -18 104 -14 -5 -14 -4 -1 13 9 11 10 16 3 11 -9 -5 -13 0
-13 14 0 11 -7 23 -15 26 -8 4 -13 10 -10 14 3 4 -2 11 -11 14 -9 4 -14 9 -10
13 8 9 -24 43 -41 43 -7 0 -13 7 -13 15 0 8 -7 15 -15 15 -8 0 -23 8 -33 18
-10 10 -26 18 -35 16 -9 -1 -17 2 -17 7 0 5 -3 8 -7 8 -22 -4 -44 2 -39 10 9
14 -164 14 -182 -1 -12 -10 -14 -10 -8 0 10 16 5 15 -24 -8z"/>
</g>
</svg>
