<?xml version="1.0" standalone="no"?>
<!DOCTYPE svg PUBLIC "-//W3C//DTD SVG 20010904//EN"
 "http://www.w3.org/TR/2001/REC-SVG-20010904/DTD/svg10.dtd">
<svg version="1.0" xmlns="http://www.w3.org/2000/svg"
 width="71.000000pt" height="71.000000pt" viewBox="0 0 71.000000 71.000000"
 preserveAspectRatio="xMidYMid meet">
<metadata>
Created by potrace 1.11, written by Peter Selinger 2001-2013
</metadata>
<g transform="translate(0.000000,71.000000) scale(0.100000,-0.100000)"
fill="#000000" stroke="none">
<path d="M225 684 c-96 -38 -166 -112 -200 -209 -18 -52 -27 -175 -12 -175 5
0 7 -6 4 -12 -2 -7 11 -43 29 -80 61 -121 176 -189 319 -188 78 0 156 31 216
87 43 40 91 113 96 147 2 11 7 24 12 30 5 6 8 45 7 86 -3 150 -96 275 -243
326 -58 20 -161 15 -228 -12z m228 -68 c106 -44 171 -141 171 -252 0 -157
-136 -284 -289 -272 -219 18 -332 261 -201 434 74 99 208 137 319 90z"/>
<path d="M306 572 c-4 -3 -13 -7 -21 -8 -63 -9 -151 -118 -140 -174 2 -11 0
-22 -5 -25 -6 -3 -6 -15 0 -29 5 -13 6 -27 3 -30 -4 -3 -1 -6 5 -6 7 0 11 -3
10 -7 -6 -32 46 -89 112 -123 35 -19 116 -21 155 -4 83 34 146 128 139 205 -8
84 -48 145 -119 181 -39 20 -127 33 -139 20z m124 -88 c55 -33 79 -111 53
-175 -18 -47 -82 -89 -133 -89 -73 0 -142 69 -142 142 0 115 121 181 222 122z"/>
<path d="M313 437 c-12 -5 -27 -22 -33 -38 -25 -59 16 -120 76 -114 30 3 72
33 75 54 6 42 3 55 -19 76 -14 14 -27 26 -31 26 -27 6 -49 5 -68 -4z"/>
</g>
</svg>
